<svg xmlns="http://www.w3.org/2000/svg" width="100" height="28" viewBox="0 0 100 28" fill="none">
    <path d="M1.62506 18.05C1.35687 17.2319 1.16773 16.3779 1.06667 15.4972C3.80591 13.1564 6.69658 11.1707 9.54904 9.49545C9.63417 9.74612 9.72184 9.99946 9.81211 10.2553C10.7893 13.0118 12.1531 16.2795 14.0392 19.786C10.423 19.648 6.2512 19.153 1.62506 18.05Z" fill="url(#paint0_radial)"/>
    <path d="M2.45751 20.0205C3.28438 21.599 4.42626 22.9867 5.79973 24.1003C7.90058 23.3368 9.92556 22.4257 11.861 21.4156C9.05724 21.2066 5.90309 20.7806 2.45751 20.0205Z" fill="url(#paint1_radial)"/>
    <path d="M17.0998 21.578C17.9032 22.9187 18.7857 24.2835 19.7542 25.6578C21.9364 24.5784 23.7721 22.9051 25.0498 20.8494C23.4717 21.1295 21.516 21.3832 19.2159 21.5072C18.5446 21.5445 17.8362 21.5681 17.0998 21.578Z" fill="url(#paint2_radial)"/>
    <path d="M26.0525 18.8795C26.6634 17.3728 26.9999 15.7257 26.9999 14C26.9999 13.9538 26.9997 13.9076 26.9992 13.8615C26.7618 13.7239 26.518 13.5854 26.2676 13.4461L26.2142 13.4931C23.9437 15.4772 21.142 17.6989 17.9227 19.8021C21.3779 19.6961 24.1311 19.2811 26.0525 18.8795Z" fill="url(#paint3_radial)"/>
    <path d="M7.48533 25.2605C9.39897 26.3668 11.6208 27 13.9906 27C15.4134 27 16.7829 26.7718 18.0643 26.3499C16.9451 24.7388 15.9407 23.1417 15.0399 21.5813C12.6885 22.9479 10.1584 24.2119 7.48533 25.2605Z" fill="url(#paint4_radial)"/>
    <path d="M26.6157 10.8512C26.3765 11.071 26.1326 11.2925 25.8841 11.5155C25.7241 11.4316 25.5619 11.3477 25.3974 11.2636C22.5929 9.82792 18.829 8.24336 14.1739 7.01304C16.9865 5.63565 19.6508 4.55646 21.9648 3.72771C24.2321 5.48781 25.9012 7.98098 26.6157 10.8512Z" fill="url(#paint5_radial)"/>
    <path d="M10.3588 6.13318C10.7559 6.21173 11.1477 6.29321 11.5342 6.37738C14.616 4.7517 17.5586 3.49086 20.1209 2.5309C18.2943 1.55396 16.2072 1 13.9906 1C12.3319 1 10.7457 1.31022 9.28688 1.87576C9.55131 3.11481 9.90032 4.54933 10.3588 6.13318Z" fill="url(#paint6_radial)"/>
    <path d="M4.37821 5.24011C5.77085 5.38259 7.11365 5.56441 8.40563 5.7784C8.09377 4.64693 7.83875 3.60138 7.63047 2.65688C6.41145 3.34088 5.31389 4.21542 4.37821 5.24011Z" fill="url(#paint7_radial)"/>
    <path d="M8.87531 7.40022C7.10142 7.0861 5.22524 6.83362 3.24949 6.66344C1.94239 8.5707 1.13077 10.8438 1 13.2974C3.61968 11.1599 6.33314 9.33572 8.99369 7.786C8.95353 7.65654 8.91408 7.52794 8.87531 7.40022Z" fill="url(#paint8_radial)"/>
    <path d="M11.126 8.59785C11.456 8.41578 11.7851 8.23781 12.1129 8.06388C17.4033 9.29904 21.6163 11.0377 24.6613 12.5908C22.0838 14.8121 19.081 17.1167 15.7391 19.1968C13.8412 15.7099 12.476 12.4569 11.5096 9.7156C11.376 9.33757 11.2482 8.96483 11.126 8.59785Z" fill="url(#paint9_radial)"/>
    <path d="M42.5878 11.8161H39.9435V15.0727C39.9435 15.3409 39.9435 15.5708 39.9818 15.8007C40.0201 16.0306 40.0585 16.2222 40.1734 16.3754C40.2501 16.5287 40.4034 16.6436 40.595 16.7586C40.7866 16.8352 41.0549 16.8735 41.3614 16.8735C41.5147 16.8735 41.7447 16.8735 42.0129 16.8352C42.2812 16.7969 42.4728 16.7202 42.5878 16.6053V19.134C42.2429 19.249 41.8979 19.3256 41.553 19.3639C41.2081 19.4022 40.8249 19.4405 40.48 19.4405C39.9818 19.4405 39.4836 19.4022 39.0621 19.2873C38.6405 19.1723 38.2573 19.0191 37.9507 18.7892C37.6441 18.5593 37.3759 18.2528 37.1843 17.8697C36.9927 17.4865 36.916 17.0268 36.916 16.4904V11.8544H34.9999V9.4406H36.916V6.52874H39.9435V9.4406H42.5878V11.8161Z" fill="white"/>
    <path d="M44.6572 9.40228H47.6846V10.9731H47.723C48.0295 10.3601 48.4128 9.90036 48.8726 9.63216C49.3325 9.32565 49.869 9.17239 50.5588 9.17239C50.7505 9.17239 50.9037 9.1724 51.0954 9.21071C51.287 9.21071 51.4403 9.24902 51.5936 9.28734V12.0459C51.3636 11.9693 51.172 11.931 50.9421 11.8927C50.7505 11.8544 50.5205 11.8544 50.2906 11.8544C49.7157 11.8544 49.2559 11.931 48.911 12.0843C48.5661 12.2375 48.3361 12.4674 48.1445 12.7739C47.9529 13.0804 47.8379 13.4252 47.7996 13.8084C47.7613 14.1915 47.723 14.6513 47.723 15.1494V19.2106H44.6955V9.40228H44.6572Z" fill="white"/>
    <path d="M53.1269 6.33723C53.1269 5.83914 53.2802 5.456 53.625 5.11117C53.9698 4.76635 54.3913 4.6131 54.851 4.6131C55.3491 4.6131 55.7323 4.76635 56.0771 5.11117C56.4219 5.456 56.5752 5.87746 56.5752 6.33723C56.5752 6.83531 56.4219 7.21844 56.0771 7.56327C55.7323 7.9081 55.3108 8.06135 54.851 8.06135C54.353 8.06135 53.9698 7.9081 53.625 7.56327C53.3185 7.25676 53.1269 6.83531 53.1269 6.33723ZM53.3951 9.40234H56.4219V19.1724H53.3951V9.40234Z" fill="white"/>
    <path d="M68.8392 18.3678C68.8392 20.2069 68.3793 21.6245 67.4596 22.5824C66.5399 23.5402 65.1219 24 63.2058 24C62.3244 24 61.4813 23.8851 60.6382 23.6935C59.7951 23.5019 59.0286 23.1188 58.3005 22.5441L59.9867 20.0537C60.4466 20.4368 60.9448 20.7433 61.4813 20.9732C61.9795 21.2031 62.5543 21.318 63.1675 21.318C64.0872 21.318 64.777 21.0881 65.1986 20.6284C65.6201 20.1686 65.85 19.5939 65.85 18.9042V17.9464H65.8117C65.4668 18.4062 65.0453 18.751 64.5088 18.9426C64.0106 19.1341 63.5124 19.2491 63.0525 19.2491C62.3244 19.2491 61.6729 19.1341 61.098 18.8659C60.5232 18.636 59.9867 18.2529 59.5651 17.8315C59.1436 17.3717 58.837 16.8353 58.6071 16.2223C58.3771 15.6092 58.2622 14.9196 58.2622 14.1916C58.2622 13.5403 58.3771 12.9273 58.5687 12.3142C58.7604 11.7012 59.0669 11.1648 59.4502 10.7051C59.8334 10.2453 60.2933 9.86215 60.8298 9.55564C61.3663 9.24913 62.0178 9.13419 62.7076 9.13419C63.1291 9.13419 63.5124 9.1725 63.8956 9.28745C64.2405 9.36407 64.5854 9.51733 64.8537 9.63227C65.1219 9.74721 65.3902 9.93878 65.5818 10.1304C65.7734 10.3219 65.9267 10.4752 66.08 10.6667H66.1183V9.36407H68.8775V18.3678H68.8392ZM61.2513 14.2299C61.2513 14.5365 61.328 14.843 61.4429 15.1495C61.5579 15.456 61.7495 15.6859 61.9411 15.9158C62.1711 16.1456 62.401 16.2989 62.7076 16.4522C63.0142 16.5671 63.3208 16.6437 63.6657 16.6437C64.0106 16.6437 64.3171 16.5671 64.6237 16.4522C64.9303 16.3372 65.1602 16.1456 65.3902 15.9158C65.6201 15.6859 65.7734 15.456 65.8884 15.1495C66.0033 14.843 66.08 14.5748 66.08 14.2299C66.08 13.9234 66.0033 13.6169 65.8884 13.3104C65.7734 13.0039 65.5818 12.774 65.3902 12.5441C65.1602 12.3142 64.9303 12.161 64.6237 12.0077C64.3171 11.8928 64.0106 11.8162 63.6657 11.8162C63.3208 11.8162 63.0142 11.8928 62.7076 12.0077C62.401 12.1227 62.1711 12.3142 61.9411 12.5441C61.7112 12.774 61.5579 13.0039 61.4429 13.3104C61.2897 13.6169 61.2513 13.9234 61.2513 14.2299Z" fill="white"/>
    <path d="M81.5243 18.3678C81.5243 20.2069 81.0645 21.6245 80.1447 22.5824C79.225 23.5402 77.807 24 75.8909 24C75.0095 24 74.1664 23.8851 73.3233 23.6935C72.4802 23.5019 71.7137 23.1188 70.9856 22.5441L72.6718 20.0537C73.1317 20.4368 73.6299 20.7433 74.1664 20.9732C74.6646 21.2031 75.2394 21.318 75.8526 21.318C76.7723 21.318 77.4621 21.0881 77.8837 20.6284C78.3052 20.1686 78.5352 19.5939 78.5352 18.9042V17.9464H78.4968C78.1519 18.4062 77.7304 18.751 77.1939 18.9426C76.6957 19.1341 76.1975 19.2491 75.7376 19.2491C75.0095 19.2491 74.358 19.1341 73.7832 18.8659C73.2083 18.636 72.6718 18.2529 72.2503 17.8315C71.8287 17.3717 71.5221 16.8353 71.2922 16.2223C71.0623 15.6092 70.9473 14.9196 70.9473 14.1916C70.9473 13.5403 71.0623 12.9273 71.2539 12.3142C71.4455 11.7012 71.7521 11.1648 72.1353 10.7051C72.5185 10.2453 72.9784 9.86215 73.5149 9.55564C74.0514 9.24913 74.7029 9.13419 75.3927 9.13419C75.8143 9.13419 76.1975 9.1725 76.5807 9.28745C76.9256 9.36407 77.2705 9.51733 77.5388 9.63227C77.807 9.74721 78.0753 9.93878 78.2669 10.1304C78.4585 10.3219 78.6118 10.4752 78.7651 10.6667H78.8034V9.36407H81.5627V18.3678H81.5243ZM73.9365 14.2299C73.9365 14.5365 74.0131 14.843 74.1281 15.1495C74.243 15.456 74.4346 15.6859 74.6263 15.9158C74.8562 16.1456 75.0861 16.2989 75.3927 16.4522C75.661 16.5671 76.0059 16.6437 76.3508 16.6437C76.6957 16.6437 77.0023 16.5671 77.3088 16.4522C77.6154 16.3372 77.8454 16.1456 78.0753 15.9158C78.3052 15.6859 78.4585 15.456 78.5735 15.1495C78.6885 14.843 78.7651 14.5748 78.7651 14.2299C78.7651 13.9234 78.6885 13.6169 78.5735 13.3104C78.4585 13.0039 78.2669 12.774 78.0753 12.5441C77.8454 12.3142 77.5771 12.161 77.3088 12.0077C77.0023 11.8928 76.6957 11.8162 76.3508 11.8162C76.0059 11.8162 75.6993 11.8928 75.3927 12.0077C75.0861 12.1227 74.8562 12.3142 74.6263 12.5441C74.3963 12.774 74.243 13.0039 74.1281 13.3104C73.9748 13.6169 73.9365 13.9234 73.9365 14.2299Z" fill="white"/>
    <path d="M84.0155 4H87.0423V19.1723H84.0155V4Z" fill="white"/>
    <path d="M98.54 17.4866C98.0418 18.0996 97.4669 18.5594 96.7005 18.9042C95.9724 19.2491 95.2059 19.4023 94.4011 19.4023C93.6347 19.4023 92.9449 19.2874 92.2934 19.0575C91.6419 18.8276 91.0671 18.4828 90.5689 18.023C90.0707 17.5633 89.6875 17.0269 89.4192 16.4138C89.1509 15.8008 88.9976 15.0728 88.9976 14.3066C88.9976 13.5403 89.1509 12.8123 89.4192 12.1993C89.6875 11.5863 90.0707 11.0499 90.5689 10.5901C91.0671 10.1303 91.6419 9.78552 92.2934 9.55564C92.9449 9.32575 93.673 9.21082 94.4011 9.21082C95.0909 9.21082 95.7424 9.32575 96.3173 9.55564C96.8921 9.78552 97.352 10.1303 97.7735 10.5901C98.1568 11.0499 98.4633 11.5863 98.6933 12.1993C98.9232 12.8123 98.9999 13.5403 98.9999 14.3066V15.2644H92.0251C92.1401 15.8391 92.4084 16.2989 92.7916 16.6437C93.1748 16.9885 93.673 17.1418 94.2862 17.1418C94.7844 17.1418 95.2059 17.0269 95.5508 16.797C95.8957 16.5671 96.2023 16.2989 96.4322 15.9541L98.54 17.4866ZM95.9724 13.1955C95.9724 12.6974 95.8191 12.2376 95.4742 11.8928C95.1293 11.548 94.6694 11.3564 94.1329 11.3564C93.788 11.3564 93.5197 11.3947 93.2515 11.5097C92.9832 11.6246 92.7916 11.7395 92.6 11.9311C92.4084 12.1227 92.2934 12.2759 92.1784 12.5058C92.0635 12.7357 92.0251 12.9656 92.0251 13.1955H95.9724Z" fill="white"/>
    <defs>
        <radialGradient id="paint0_radial" cx="0" cy="0" r="1" gradientUnits="userSpaceOnUse" gradientTransform="translate(10.5 8) rotate(63.4398) scale(24.5957)">
            <stop offset="0.364583" stop-color="white"/>
            <stop offset="1" stop-color="#C4C4C4" stop-opacity="0"/>
        </radialGradient>
        <radialGradient id="paint1_radial" cx="0" cy="0" r="1" gradientUnits="userSpaceOnUse" gradientTransform="translate(10.5 8) rotate(63.4398) scale(24.5957)">
            <stop offset="0.364583" stop-color="white"/>
            <stop offset="1" stop-color="#C4C4C4" stop-opacity="0"/>
        </radialGradient>
        <radialGradient id="paint2_radial" cx="0" cy="0" r="1" gradientUnits="userSpaceOnUse" gradientTransform="translate(10.5 8) rotate(63.4398) scale(24.5957)">
            <stop offset="0.364583" stop-color="white"/>
            <stop offset="1" stop-color="#C4C4C4" stop-opacity="0"/>
        </radialGradient>
        <radialGradient id="paint3_radial" cx="0" cy="0" r="1" gradientUnits="userSpaceOnUse" gradientTransform="translate(10.5 8) rotate(63.4398) scale(24.5957)">
            <stop offset="0.364583" stop-color="white"/>
            <stop offset="1" stop-color="#C4C4C4" stop-opacity="0"/>
        </radialGradient>
        <radialGradient id="paint4_radial" cx="0" cy="0" r="1" gradientUnits="userSpaceOnUse" gradientTransform="translate(10.5 8) rotate(63.4398) scale(24.5957)">
            <stop offset="0.364583" stop-color="white"/>
            <stop offset="1" stop-color="#C4C4C4" stop-opacity="0"/>
        </radialGradient>
        <radialGradient id="paint5_radial" cx="0" cy="0" r="1" gradientUnits="userSpaceOnUse" gradientTransform="translate(10.5 8) rotate(63.4398) scale(24.5957)">
            <stop offset="0.364583" stop-color="white"/>
            <stop offset="1" stop-color="#C4C4C4" stop-opacity="0"/>
        </radialGradient>
        <radialGradient id="paint6_radial" cx="0" cy="0" r="1" gradientUnits="userSpaceOnUse" gradientTransform="translate(10.5 8) rotate(63.4398) scale(24.5957)">
            <stop offset="0.364583" stop-color="white"/>
            <stop offset="1" stop-color="#C4C4C4" stop-opacity="0"/>
        </radialGradient>
        <radialGradient id="paint7_radial" cx="0" cy="0" r="1" gradientUnits="userSpaceOnUse" gradientTransform="translate(10.5 8) rotate(63.4398) scale(24.5957)">
            <stop offset="0.364583" stop-color="white"/>
            <stop offset="1" stop-color="#C4C4C4" stop-opacity="0"/>
        </radialGradient>
        <radialGradient id="paint8_radial" cx="0" cy="0" r="1" gradientUnits="userSpaceOnUse" gradientTransform="translate(10.5 8) rotate(63.4398) scale(24.5957)">
            <stop offset="0.364583" stop-color="white"/>
            <stop offset="1" stop-color="#C4C4C4" stop-opacity="0"/>
        </radialGradient>
        <radialGradient id="paint9_radial" cx="0" cy="0" r="1" gradientUnits="userSpaceOnUse" gradientTransform="translate(10.5 8) rotate(63.4398) scale(24.5957)">
            <stop offset="0.364583" stop-color="white"/>
            <stop offset="1" stop-color="#C4C4C4" stop-opacity="0"/>
        </radialGradient>
    </defs>
</svg>